<svg width="46" height="58" viewBox="0 0 46 58" fill="none" xmlns="http://www.w3.org/2000/svg">
<g clip-path="url(#clip0)">
<path d="M23 39.15C22.8094 39.15 22.6266 39.2263 22.4918 39.3623C22.357 39.4983 22.2812 39.6827 22.2812 39.875V43.5C22.2812 43.6922 22.357 43.8766 22.4918 44.0126C22.6266 44.1486 22.8094 44.225 23 44.225C23.1906 44.225 23.3734 44.1486 23.5082 44.0126C23.643 43.8766 23.7188 43.6922 23.7188 43.5V39.875C23.7188 39.6827 23.643 39.4983 23.5082 39.3623C23.3734 39.2263 23.1906 39.15 23 39.15Z" fill="#38D4B8"/>
<path d="M26.703 42.7837C26.4162 42.7221 25.875 42.1863 25.875 40.6C25.875 40.4077 25.7993 40.2233 25.6645 40.0873C25.5297 39.9514 25.3469 39.875 25.1562 39.875C24.9656 39.875 24.7828 39.9514 24.648 40.0873C24.5132 40.2233 24.4375 40.4077 24.4375 40.6C24.4375 43.9567 26.432 44.2112 26.5168 44.2206C26.7078 44.2416 26.8994 44.1863 27.0504 44.0665C27.2014 43.9466 27.2999 43.7719 27.3247 43.5797C27.3365 43.4862 27.3298 43.3912 27.3048 43.3003C27.2798 43.2093 27.2372 43.1244 27.1793 43.0503C27.1214 42.9762 27.0495 42.9144 26.9677 42.8687C26.8859 42.8229 26.796 42.794 26.703 42.7837Z" fill="#38D4B8"/>
<path d="M20.8439 39.875C20.6532 39.875 20.4704 39.9514 20.3356 40.0873C20.2008 40.2233 20.1251 40.4077 20.1251 40.6C20.1251 42.1863 19.5839 42.7221 19.3294 42.7794C19.234 42.7875 19.1412 42.8148 19.0564 42.8597C18.9716 42.9045 18.8965 42.966 18.8356 43.0405C18.7747 43.1151 18.7291 43.2011 18.7016 43.2937C18.6741 43.3862 18.6653 43.4833 18.6755 43.5794C18.6858 43.6754 18.7149 43.7684 18.7613 43.8529C18.8077 43.9374 18.8703 44.0117 18.9456 44.0715C19.0208 44.1312 19.1072 44.1752 19.1995 44.2008C19.2918 44.2264 19.3883 44.2332 19.4833 44.2207C19.5681 44.2112 21.5626 43.9568 21.5626 40.6C21.5626 40.4077 21.4869 40.2233 21.3521 40.0873C21.2173 39.9514 21.0345 39.875 20.8439 39.875Z" fill="#38D4B8"/>
<path d="M29.4594 21.7333C29.4594 21.4991 29.4688 21.2686 29.4688 21.025C29.5652 17.0121 29.0395 13.0087 27.9105 9.15963C27.9105 9.15238 27.9062 9.1444 27.9033 9.13715C26.1323 3.6547 23.4701 2.32215 23.3033 2.2424C23.2084 2.19835 23.1052 2.17554 23.0007 2.17554C22.8963 2.17554 22.793 2.19835 22.6981 2.2424C22.5307 2.3207 19.8684 3.6547 18.0981 9.13715C18.0981 9.1444 18.0938 9.15238 18.0909 9.15963C16.9615 13.0086 16.4352 17.0121 16.5312 21.025C16.5312 21.2722 16.537 21.4999 16.5406 21.7333C14.4375 23.0492 10.0625 26.5872 10.0625 30.45C10.0625 30.5693 10.0917 30.6868 10.1475 30.792C10.2033 30.8972 10.2839 30.9869 10.3823 31.0532C12.3129 32.3517 16.5463 32.5757 18.0306 32.6163C18.2169 33.2094 18.4513 33.786 18.7313 34.3403L19.4278 37.1504C19.4666 37.3073 19.5563 37.4467 19.6826 37.5462C19.809 37.6458 19.9647 37.6999 20.125 37.7H25.875C26.0353 37.6999 26.191 37.6458 26.3174 37.5462C26.4437 37.4467 26.5334 37.3073 26.5722 37.1504L27.2687 34.3403C27.5487 33.786 27.7831 33.2094 27.9694 32.6163C29.4537 32.5771 33.6871 32.3517 35.6177 31.0532C35.7161 30.9869 35.7967 30.8972 35.8525 30.792C35.9083 30.6868 35.9375 30.5693 35.9375 30.45C35.9375 26.5872 31.5618 23.0492 29.4594 21.7333ZM26.754 31.6897C26.5892 32.2559 26.3875 32.8105 26.1503 33.35H19.8497C19.6124 32.8106 19.4107 32.256 19.246 31.6897C18.9192 30.5698 18.6673 29.429 18.492 28.275H19.6808L20.2005 29.3241C20.2602 29.4446 20.352 29.5459 20.4656 29.6167C20.5792 29.6876 20.7102 29.725 20.8438 29.725H25.1562C25.2904 29.7257 25.4221 29.6886 25.5365 29.6177C25.6508 29.5468 25.7432 29.4451 25.8031 29.3241L26.3192 28.275H27.5087C27.3327 29.4289 27.0806 30.5697 26.754 31.6897ZM23 17.4C22.7157 17.4 22.4378 17.3149 22.2014 17.1556C21.965 16.9963 21.7807 16.7698 21.6719 16.5049C21.5631 16.2399 21.5347 15.9484 21.5901 15.6671C21.6456 15.3858 21.7825 15.1275 21.9835 14.9247C22.1846 14.7219 22.4407 14.5838 22.7196 14.5278C22.9984 14.4719 23.2874 14.5006 23.5501 14.6104C23.8128 14.7201 24.0373 14.9059 24.1952 15.1444C24.3532 15.3828 24.4375 15.6632 24.4375 15.95C24.4375 16.3345 24.2861 16.7034 24.0165 16.9753C23.7469 17.2472 23.3812 17.4 23 17.4ZM23 3.75983C23.6174 4.22383 25.042 5.57233 26.2186 8.69998H19.7814C20.9595 5.5658 22.3862 4.2202 23 3.75983ZM19.2963 10.15H26.7037C27.6629 13.6916 28.11 17.3544 28.0312 21.025C28.0312 21.3998 28.0312 21.7594 28.0169 22.1277C27.9931 23.6977 27.8909 25.2654 27.7107 26.825H25.875C25.7408 26.8242 25.6091 26.8614 25.4948 26.9323C25.3805 27.0031 25.2881 27.1048 25.2281 27.2259L24.7121 28.275H23.7188V18.747C24.3963 18.5706 24.9868 18.1509 25.3795 17.5667C25.7722 16.9825 25.9403 16.2739 25.8521 15.5737C25.7639 14.8735 25.4256 14.2297 24.9005 13.7631C24.3755 13.2965 23.6998 13.0391 23 13.0391C22.3002 13.0391 21.6245 13.2965 21.0995 13.7631C20.5744 14.2297 20.2361 14.8735 20.1479 15.5737C20.0597 16.2739 20.2278 16.9825 20.6205 17.5667C21.0132 18.1509 21.6037 18.5706 22.2812 18.747V28.275H21.2879L20.7719 27.2259C20.7119 27.1048 20.6195 27.0031 20.5052 26.9323C20.3909 26.8614 20.2592 26.8242 20.125 26.825H18.2893C18.0727 24.8994 17.9657 22.9629 17.9688 21.025C17.89 17.3544 18.3371 13.6916 19.2963 10.15ZM11.5216 30.0454C11.7861 27.5493 14.4138 24.9451 16.5837 23.4327C16.6674 26.0342 17.011 28.6206 17.6094 31.1525C15.8585 31.0778 13.0094 30.8009 11.5216 30.0454ZM25.3137 36.25H20.6863L20.327 34.8H25.673L25.3137 36.25ZM28.3942 31.1525C28.9874 28.6197 29.3297 26.0337 29.4163 23.4327C31.5862 24.9451 34.2125 27.55 34.4784 30.0454C32.9906 30.8009 30.1415 31.0778 28.3942 31.1525Z" fill="#38D4B8"/>
</g>
<defs>
<clipPath id="clip0">
<rect width="46" height="58" fill="white"/>
</clipPath>
</defs>
</svg>
