<svg width="37" height="29" viewBox="0 0 37 29" fill="none" xmlns="http://www.w3.org/2000/svg">
<path d="M28.5162 14.6319H31.5988C32.2313 14.6319 32.8137 14.8926 33.2354 15.3138C33.6571 15.735 33.9182 16.3167 33.9182 16.9485C33.9182 17.5903 33.6571 18.162 33.2354 18.5832C32.8137 19.0044 32.2414 19.2651 31.5988 19.2651H28.5162C27.8836 19.2651 27.3013 19.0044 26.8796 18.5832C26.4578 18.162 26.1968 17.5803 26.1968 16.9485C26.1968 16.3067 26.4578 15.735 26.8796 15.3138C27.3013 14.8926 27.8836 14.6319 28.5162 14.6319ZM31.5988 16.1863H28.5162C28.3054 16.1863 28.1146 16.2766 27.974 16.417C27.8334 16.5574 27.7431 16.7479 27.7431 16.9585C27.7431 17.1691 27.8334 17.3597 27.974 17.5001C28.1146 17.6405 28.3054 17.7307 28.5162 17.7307H31.5988C31.8096 17.7307 32.0004 17.6405 32.141 17.5001C32.2815 17.3597 32.3719 17.1691 32.3719 16.9585C32.3719 16.7479 32.2815 16.5574 32.141 16.417C32.0004 16.2766 31.8096 16.1863 31.5988 16.1863Z" fill="#162439"/>
<path d="M5.26134 14.6319H8.34388C8.97646 14.6319 9.55883 14.8926 9.98055 15.3138C10.4023 15.735 10.6633 16.3167 10.6633 16.9485C10.6633 17.5903 10.4023 18.162 9.98055 18.5832C9.55883 19.0044 8.9865 19.2651 8.34388 19.2651H5.26134C4.62876 19.2651 4.04639 19.0044 3.62467 18.5832C3.20296 18.162 2.94189 17.5803 2.94189 16.9485C2.94189 16.3067 3.20296 15.735 3.62467 15.3138C4.04639 14.8926 4.61872 14.6319 5.26134 14.6319ZM8.34388 16.1863H5.26134C5.05048 16.1863 4.8597 16.2766 4.71913 16.417C4.57856 16.5574 4.48819 16.7479 4.48819 16.9585C4.48819 17.1691 4.57856 17.3597 4.71913 17.5001C4.8597 17.6405 5.05048 17.7307 5.26134 17.7307H8.34388C8.55474 17.7307 8.74552 17.6405 8.88609 17.5001C9.02666 17.3597 9.11703 17.1691 9.11703 16.9585C9.11703 16.7479 9.02666 16.5574 8.88609 16.417C8.74552 16.2665 8.55474 16.1863 8.34388 16.1863Z" fill="#162439"/>
<path d="M25.4234 17.7107H11.5469V19.2551H25.4234V17.7107Z" fill="#162439"/>
<path d="M25.4234 14.6319H11.5469V16.1763H25.4234V14.6319Z" fill="#162439"/>
<path d="M3.59473 10.0287H33.6973V11.5631H3.59473V10.0287Z" fill="#162439"/>
<path d="M20.8149 10.4298V10.3998C20.8149 9.0158 21.3772 7.76222 22.2809 6.85963C23.1846 5.95705 24.4397 5.39545 25.8253 5.39545C27.211 5.39545 28.4661 5.95705 29.3698 6.85963C30.2734 7.76222 30.8357 9.0158 30.8357 10.3998H29.2894C29.2894 9.44704 28.8978 8.57454 28.2753 7.95276C27.6427 7.32095 26.7792 6.93986 25.8253 6.93986C24.8715 6.93986 23.9979 7.33098 23.3754 7.95276C22.7428 8.58457 22.3612 9.44704 22.3612 10.3998V10.4298H20.8149Z" fill="#162439"/>
<path fill-rule="evenodd" clip-rule="evenodd" d="M6.96836 1.54442L4.65896 10.6003L4.46819 11.3525C2.95202 11.8038 1.52621 12.2952 1.52621 14.2107V19.7565C1.52621 20.2981 1.68687 20.8096 1.99813 21.2608C2.41985 21.8726 3.20304 22.1735 3.83561 22.354L3.81553 26.6262C3.81553 26.7165 3.85569 26.8067 3.91594 26.8769C3.98622 26.9471 4.06655 26.9772 4.16696 26.9772L7.69131 26.9571C7.78167 26.9571 7.87204 26.917 7.94233 26.8569C8.01261 26.7867 8.04274 26.7064 8.04274 26.6061L8.06282 22.3439H29.2892V26.6864C29.2892 26.7766 29.3294 26.8669 29.3896 26.9371C29.4599 27.0073 29.5402 27.0374 29.6406 27.0374H32.7834C32.8738 27.0374 32.9642 26.9973 33.0345 26.9371C33.1047 26.8669 33.1349 26.7867 33.1349 26.6864V22.3439C34.3699 21.682 35.4543 21.5517 35.4543 19.7565V14.2107C35.4543 13.5387 35.2033 12.9069 34.7514 12.4155C34.4603 12.0946 33.5566 11.6132 33.1549 11.4728C32.683 11.0416 32.6931 11.2321 32.3617 10.4499L30.5142 1.55445L6.96836 1.54442ZM6.15505 0H31.3476C31.6287 0 31.8095 0.220632 31.8597 0.481378L33.8678 10.149H33.9783V10.1691C34.7213 10.3897 35.374 10.8109 35.8861 11.3625C36.5789 12.1147 37.0006 13.1075 37.0006 14.2006V19.7465C37.0006 21.6219 36.1973 22.4342 34.6812 23.2566V26.6864C34.6812 27.2079 34.4703 27.6792 34.1289 28.0202C33.7875 28.3612 33.3156 28.5718 32.7935 28.5718H29.6507C29.1286 28.5718 28.6566 28.3612 28.3153 28.0202C27.9739 27.6792 27.763 27.2079 27.763 26.6864V23.8884H9.60911L9.58903 26.6162C9.58903 27.1377 9.37817 27.609 9.03678 27.95C8.69539 28.291 8.22347 28.5016 7.70135 28.5016L4.177 28.5216C3.65488 28.5216 3.18296 28.311 2.84157 27.97C2.50018 27.6291 2.28932 27.1577 2.28932 26.6362L2.3094 23.2666C1.71699 22.9457 1.12458 22.6849 0.743024 22.1333C0.271104 21.4514 0 20.6391 0 19.7565V14.2107C0 13.1175 0.421716 12.1247 1.11454 11.3725C1.58646 10.8511 2.48009 10.2293 3.193 10.1691L5.65301 0.501435C5.70321 0.23066 5.87391 0 6.15505 0Z" fill="#162439"/>
</svg>
