<svg width="47" height="58" viewBox="0 0 47 58" fill="none" xmlns="http://www.w3.org/2000/svg">
<path d="M14.3137 23.013C13.1674 23.013 12.2354 23.934 12.2354 25.0657C12.2354 26.1974 13.1674 27.1166 14.3137 27.1166C15.46 27.1166 16.392 26.1974 16.392 25.0657C16.392 23.934 15.46 23.013 14.3137 23.013ZM13.9979 25.0657C13.9979 24.8941 14.1398 24.753 14.3137 24.753C14.4876 24.753 14.6295 24.8941 14.6295 25.0657C14.6295 25.4091 13.9979 25.4091 13.9979 25.0657Z" fill="#162439" fill-opacity="0.95"/>
<path d="M22.1869 12.9298C24.7921 12.9298 26.9108 10.8381 26.9108 8.26709C26.9108 5.69467 24.7921 3.60296 22.1869 3.60296C19.5817 3.60296 17.4629 5.69467 17.4629 8.26709C17.4629 10.8381 19.5817 12.9298 22.1869 12.9298ZM22.1869 5.34296C23.8196 5.34296 25.1483 6.65469 25.1483 8.26709C25.1483 9.87809 23.8196 11.1898 22.1869 11.1898C20.5541 11.1898 19.2254 9.87809 19.2254 8.26709C19.2254 6.65469 20.5541 5.34296 22.1869 5.34296Z" fill="#162439" fill-opacity="0.95"/>
<path d="M41.8439 24.2876C40.9917 23.348 39.8337 23.2306 38.7028 23.4654C39.3364 22.4831 40.5495 22.1843 40.5584 22.1824C41.0317 22.0771 41.3297 21.6099 41.2211 21.1408C41.1125 20.6754 40.6566 20.3761 40.166 20.4865C40.087 20.5037 38.2004 20.9436 37.1796 22.5903C36.8647 23.0984 36.6668 23.6589 36.586 24.2658C36.3261 24.4018 36.0892 24.5396 35.8702 24.6737C34.3911 18.8008 28.5809 14.4016 21.6465 14.4016C19.384 14.4016 17.1407 14.8823 15.1234 15.7932L10.2152 11.9851C9.90689 11.7489 9.4759 11.7387 9.15771 11.9628C8.83858 12.187 8.70933 12.5934 8.83952 12.9586L10.8835 18.6867C9.43877 20.1158 8.35354 21.8303 7.71575 23.6928L4.82337 24.9586C4.50518 25.0978 4.29932 25.4086 4.29932 25.7539V29.4496C4.29932 29.7944 4.50518 30.1057 4.82337 30.2449L7.71575 31.5107C8.63836 34.2024 10.4996 36.5674 13.0108 38.2378L13.6124 42.0611C13.6796 42.4843 14.0485 42.797 14.4833 42.797H18.349C18.7838 42.797 19.1527 42.4843 19.2199 42.0611L19.4418 40.6473C20.9152 40.851 22.3783 40.851 23.8513 40.6473L24.0732 42.0611C24.1404 42.4843 24.5093 42.797 24.9441 42.797H28.8089C29.2427 42.797 29.6126 42.4843 29.6798 42.0611L30.2823 38.2378C34.024 35.7503 36.2447 31.803 36.2447 27.6024C36.2447 27.2526 36.2165 26.9083 36.1865 26.5649C36.3528 26.4485 36.5009 26.3357 36.6988 26.2141C36.7162 26.2888 36.7331 26.3654 36.7538 26.442C37.1392 27.9425 38.1031 28.8872 39.3975 29.0348C39.5094 29.0483 39.6193 29.0534 39.7298 29.0534C40.8381 29.0534 41.9087 28.4348 42.413 27.4748C42.9455 26.4591 42.7336 25.2681 41.8439 24.2876ZM29.0002 36.9873C28.7849 37.1214 28.6406 37.3409 28.6007 37.5873L28.0531 41.057H25.6984L25.455 39.5073C25.4178 39.273 25.2853 39.0637 25.0884 38.9277C24.8914 38.7936 24.6475 38.7394 24.4111 38.7885C22.571 39.1523 20.7206 39.1523 18.8811 38.7885C18.6442 38.7408 18.4017 38.7936 18.2038 38.9277C18.0069 39.0637 17.8743 39.2725 17.8372 39.5073L17.5937 41.057H15.2376L14.692 37.5873C14.6534 37.3409 14.5077 37.1219 14.2925 36.9873C11.8447 35.4547 10.0634 33.1946 9.27709 30.6221C9.2033 30.379 9.02564 30.1804 8.79064 30.0783L6.06088 28.884V26.3199L8.79064 25.1256C9.02564 25.0235 9.20283 24.8249 9.27709 24.5818C9.85613 22.6905 10.97 20.9556 12.4989 19.5673C12.7588 19.3312 12.851 18.966 12.7339 18.638L11.5086 15.202L14.4659 17.4979C14.7343 17.7053 15.1027 17.7424 15.4073 17.5898C17.3084 16.6432 19.4657 16.1421 21.6465 16.1421C28.7247 16.1421 34.4822 21.2841 34.4822 27.6034C34.4822 31.3293 32.4321 34.838 29.0002 36.9873ZM40.847 26.6749C40.6303 27.0911 40.095 27.3681 39.5991 27.3069C38.9139 27.2289 38.6027 26.5608 38.4613 26.0137C38.4063 25.7979 38.3668 25.5905 38.3409 25.3901C39.2325 25.0588 40.0846 24.9586 40.5321 25.4495C40.9349 25.8931 41.0416 26.306 40.847 26.6749Z" fill="#162439" fill-opacity="0.95"/>
</svg>
