<svg width="26" height="43" viewBox="0 0 26 43" fill="none" xmlns="http://www.w3.org/2000/svg">
<path d="M13 37.15C12.8094 37.15 12.6266 37.2263 12.4918 37.3623C12.357 37.4983 12.2812 37.6827 12.2812 37.875V41.5C12.2812 41.6922 12.357 41.8766 12.4918 42.0126C12.6266 42.1486 12.8094 42.225 13 42.225C13.1906 42.225 13.3734 42.1486 13.5082 42.0126C13.643 41.8766 13.7188 41.6922 13.7188 41.5V37.875C13.7188 37.6827 13.643 37.4983 13.5082 37.3623C13.3734 37.2263 13.1906 37.15 13 37.15Z" fill="black"/>
<path d="M16.703 40.7837C16.4162 40.7221 15.875 40.1863 15.875 38.6C15.875 38.4077 15.7993 38.2233 15.6645 38.0873C15.5297 37.9514 15.3469 37.875 15.1562 37.875C14.9656 37.875 14.7828 37.9514 14.648 38.0873C14.5132 38.2233 14.4375 38.4077 14.4375 38.6C14.4375 41.9567 16.432 42.2112 16.5168 42.2206C16.7078 42.2416 16.8994 42.1863 17.0504 42.0665C17.2014 41.9466 17.2999 41.7719 17.3247 41.5797C17.3365 41.4862 17.3298 41.3912 17.3048 41.3003C17.2798 41.2093 17.2372 41.1244 17.1793 41.0503C17.1214 40.9762 17.0495 40.9144 16.9677 40.8687C16.8859 40.8229 16.796 40.794 16.703 40.7837Z" fill="black"/>
<path d="M10.8439 37.875C10.6532 37.875 10.4704 37.9514 10.3356 38.0873C10.2008 38.2233 10.1251 38.4077 10.1251 38.6C10.1251 40.1863 9.58388 40.7221 9.32945 40.7794C9.23403 40.7875 9.14119 40.8148 9.05638 40.8597C8.97157 40.9045 8.8965 40.966 8.83558 41.0405C8.77466 41.1151 8.72912 41.2011 8.70163 41.2937C8.67415 41.3862 8.66527 41.4833 8.67552 41.5794C8.68576 41.6754 8.71494 41.7684 8.76132 41.8529C8.8077 41.9374 8.87035 42.0117 8.9456 42.0715C9.02085 42.1312 9.10717 42.1752 9.1995 42.2008C9.29183 42.2264 9.38831 42.2332 9.48326 42.2207C9.56807 42.2112 11.5626 41.9568 11.5626 38.6C11.5626 38.4077 11.4869 38.2233 11.3521 38.0873C11.2173 37.9514 11.0345 37.875 10.8439 37.875Z" fill="black"/>
<path d="M19.4594 19.7333C19.4594 19.4991 19.4688 19.2686 19.4688 19.025C19.5652 15.0121 19.0395 11.0087 17.9105 7.15963C17.9105 7.15238 17.9062 7.1444 17.9033 7.13715C16.1323 1.6547 13.4701 0.322152 13.3033 0.242402C13.2084 0.198348 13.1052 0.175537 13.0007 0.175537C12.8963 0.175537 12.793 0.198348 12.6981 0.242402C12.5307 0.320702 9.86841 1.6547 8.09813 7.13715C8.09813 7.1444 8.09381 7.15238 8.09094 7.15963C6.96147 11.0086 6.43523 15.0121 6.53125 19.025C6.53125 19.2722 6.537 19.4999 6.54059 19.7333C4.43753 21.0492 0.0625 24.5872 0.0625 28.45C0.0624823 28.5693 0.0916654 28.6868 0.14746 28.792C0.203254 28.8972 0.283935 28.9869 0.382344 29.0532C2.31291 30.3517 6.54634 30.5757 8.03056 30.6163C8.21692 31.2094 8.45131 31.786 8.73134 32.3403L9.42781 35.1504C9.46661 35.3073 9.55631 35.4467 9.68264 35.5462C9.80897 35.6458 9.96467 35.6999 10.125 35.7H15.875C16.0353 35.6999 16.191 35.6458 16.3174 35.5462C16.4437 35.4467 16.5334 35.3073 16.5722 35.1504L17.2687 32.3403C17.5487 31.786 17.7831 31.2094 17.9694 30.6163C19.4537 30.5771 23.6871 30.3517 25.6177 29.0532C25.7161 28.9869 25.7967 28.8972 25.8525 28.792C25.9083 28.6868 25.9375 28.5693 25.9375 28.45C25.9375 24.5872 21.5618 21.0492 19.4594 19.7333ZM16.754 29.6897C16.5892 30.2559 16.3875 30.8105 16.1503 31.35H9.84972C9.61244 30.8106 9.41075 30.256 9.24597 29.6897C8.91917 28.5698 8.66729 27.429 8.492 26.275H9.68081L10.2005 27.3241C10.2602 27.4446 10.352 27.5459 10.4656 27.6167C10.5792 27.6876 10.7102 27.725 10.8438 27.725H15.1562C15.2904 27.7257 15.4221 27.6886 15.5365 27.6177C15.6508 27.5468 15.7432 27.4451 15.8031 27.3241L16.3192 26.275H17.5087C17.3327 27.4289 17.0806 28.5697 16.754 29.6897ZM13 15.4C12.7157 15.4 12.4378 15.3149 12.2014 15.1556C11.965 14.9963 11.7807 14.7698 11.6719 14.5049C11.5631 14.2399 11.5347 13.9484 11.5901 13.6671C11.6456 13.3858 11.7825 13.1275 11.9835 12.9247C12.1846 12.7219 12.4407 12.5838 12.7196 12.5278C12.9984 12.4719 13.2874 12.5006 13.5501 12.6104C13.8128 12.7201 14.0373 12.9059 14.1952 13.1444C14.3532 13.3828 14.4375 13.6632 14.4375 13.95C14.4375 14.3345 14.2861 14.7034 14.0165 14.9753C13.7469 15.2472 13.3812 15.4 13 15.4ZM13 1.75983C13.6174 2.22383 15.042 3.57233 16.2186 6.69998H9.78144C10.9595 3.5658 12.3862 2.2202 13 1.75983ZM9.29628 8.14998H16.7037C17.6629 11.6916 18.11 15.3544 18.0312 19.025C18.0312 19.3998 18.0312 19.7594 18.0169 20.1277C17.9931 21.6977 17.8909 23.2654 17.7107 24.825H15.875C15.7408 24.8242 15.6091 24.8614 15.4948 24.9323C15.3805 25.0031 15.2881 25.1048 15.2281 25.2259L14.7121 26.275H13.7188V16.747C14.3963 16.5706 14.9868 16.1509 15.3795 15.5667C15.7722 14.9825 15.9403 14.2739 15.8521 13.5737C15.7639 12.8735 15.4256 12.2297 14.9005 11.7631C14.3755 11.2965 13.6998 11.0391 13 11.0391C12.3002 11.0391 11.6245 11.2965 11.0995 11.7631C10.5744 12.2297 10.2361 12.8735 10.1479 13.5737C10.0597 14.2739 10.2278 14.9825 10.6205 15.5667C11.0132 16.1509 11.6037 16.5706 12.2812 16.747V26.275H11.2879L10.7719 25.2259C10.7119 25.1048 10.6195 25.0031 10.5052 24.9323C10.3909 24.8614 10.2592 24.8242 10.125 24.825H8.28931C8.07273 22.8994 7.9657 20.9629 7.96875 19.025C7.88997 15.3544 8.3371 11.6916 9.29628 8.14998ZM1.52156 28.0454C1.78606 25.5493 4.41381 22.9451 6.58372 21.4327C6.66736 24.0342 7.01099 26.6206 7.60938 29.1525C5.8585 29.0778 3.00938 28.8009 1.52156 28.0454ZM15.3137 34.25H10.6863L10.327 32.8H15.673L15.3137 34.25ZM18.3942 29.1525C18.9874 26.6197 19.3297 24.0337 19.4163 21.4327C21.5862 22.9451 24.2125 25.55 24.4784 28.0454C22.9906 28.8009 20.1415 29.0778 18.3942 29.1525Z" fill="#162439"/>
</svg>
