<svg width="39" height="49" viewBox="0 0 39 49" fill="none" xmlns="http://www.w3.org/2000/svg">
<g clip-path="url(#clip0)">
<path d="M31.0781 22.6625C27.3609 22.6625 24.375 25.6638 24.375 29.4C24.375 33.1363 27.3609 36.1375 31.0781 36.1375C34.7953 36.1375 37.7812 33.1363 37.7812 29.4C37.7812 25.6638 34.7953 22.6625 31.0781 22.6625ZM31.0781 34.9125C28.0312 34.9125 25.5938 32.4625 25.5938 29.4C25.5938 26.3375 28.0312 23.8875 31.0781 23.8875C34.125 23.8875 36.5625 26.3375 36.5625 29.4C36.5625 32.4625 34.125 34.9125 31.0781 34.9125Z" fill="#38D4B8"/>
<path d="M27.6314 31.9987L28.4932 32.8649L34.5256 26.8015L33.6638 25.9353L27.6314 31.9987Z" fill="#38D4B8"/>
<path d="M29.3719 28.7262C29.944 28.7262 30.4078 28.2601 30.4078 27.685C30.4078 27.1099 29.944 26.6437 29.3719 26.6437C28.7997 26.6437 28.3359 27.1099 28.3359 27.685C28.3359 28.2601 28.7997 28.7262 29.3719 28.7262Z" fill="#38D4B8"/>
<path d="M32.7845 32.1562C33.3566 32.1562 33.8204 31.6901 33.8204 31.115C33.8204 30.5399 33.3566 30.0737 32.7845 30.0737C32.2123 30.0737 31.7485 30.5399 31.7485 31.115C31.7485 31.6901 32.2123 32.1562 32.7845 32.1562Z" fill="#38D4B8"/>
<path d="M28.0312 16.5375C28.7043 16.5375 29.25 15.989 29.25 15.3125C29.25 14.636 28.7043 14.0875 28.0312 14.0875C27.3582 14.0875 26.8125 14.636 26.8125 15.3125C26.8125 15.989 27.3582 16.5375 28.0312 16.5375Z" fill="#38D4B8"/>
<path d="M7.09375 4.2875H30.8594C31.225 4.2875 31.4688 4.5325 31.4688 4.9V11.6375H27.8125C25.8016 11.6375 24.1562 13.2913 24.1562 15.3125C24.1562 17.3338 25.8016 18.9875 27.8125 18.9875H31.4688V21.4987C31.8953 21.56 32.3219 21.6213 32.6875 21.6825V18.9875H34.5156C35.5516 18.9875 36.3438 18.1912 36.3438 17.15V13.475C36.3438 12.4338 35.5516 11.6375 34.5156 11.6375H32.6875V4.9C32.6875 3.85875 31.8953 3.0625 30.8594 3.0625H4.04688C2.34063 3.0625 1 4.41 1 6.125V24.5C1 26.215 2.34063 27.5625 4.04688 27.5625H23.1813C23.2422 27.1338 23.3641 26.705 23.5469 26.3375H7.09375V4.2875ZM35.125 13.475V17.15C35.125 17.5175 34.8812 17.7625 34.5156 17.7625H27.8125C26.4719 17.7625 25.375 16.66 25.375 15.3125C25.375 13.965 26.4719 12.8625 27.8125 12.8625H34.5156C34.8812 12.8625 35.125 13.1075 35.125 13.475ZM2.21875 24.5V6.125C2.21875 5.08375 3.01094 4.2875 4.04688 4.2875H5.875V26.3375H4.04688C3.01094 26.3375 2.21875 25.5413 2.21875 24.5Z" fill="#38D4B8"/>
</g>
<defs>
<clipPath id="clip0">
<rect width="39" height="49" fill="white"/>
</clipPath>
</defs>
</svg>
