<svg width="794" height="86" viewBox="0 0 794 86" fill="none" xmlns="http://www.w3.org/2000/svg">
<path d="M-126 0H701.085L794 43L701.085 86H-33.0853L-126 0Z" fill="url(#paint0_linear)"/>
<path d="M377.825 42.9H382.39V66H389.485V42.9H394.93V37.015H389.485V33.825C389.485 30.965 391.08 29.48 393.665 29.48C395.15 29.48 396.415 29.7 397.57 30.085H398.395V24.585C397.295 24.145 395.865 23.65 392.565 23.65C386.9 23.65 382.39 26.95 382.39 33.44V37.015H377.825V42.9ZM399.054 66H406.424V47.74C406.919 44.55 409.174 43.065 412.199 43.065H417.974V36.905H413.079C409.504 36.905 407.414 38.995 406.809 42.68H405.929V37.015H399.054V66ZM420.653 51.48C420.653 60.17 427.088 66.715 436.273 66.715C445.513 66.715 452.003 60.17 452.003 51.425C452.003 42.735 445.238 36.245 436.273 36.245C427.363 36.245 420.653 42.79 420.653 51.48ZM428.243 51.48C428.243 45.815 431.653 42.625 436.273 42.625C441.113 42.625 444.413 45.815 444.413 51.48C444.413 56.87 441.113 60.335 436.273 60.335C431.653 60.335 428.243 56.76 428.243 51.48ZM477.14 66H484.675V48.95C484.785 45.54 487.755 43.065 491.44 43.065C494.795 43.065 497.435 45.21 497.435 48.785V66H504.97V47.41C504.97 40.15 500.13 36.465 493.365 36.465C489.405 36.465 485.005 38.665 483.795 42.295H483.245C481.705 38.665 478.185 36.465 473.29 36.465C468.89 36.465 465.81 39.435 465.205 42.68H464.215V37.015H456.9V66H464.435V48.95C464.6 45.54 467.735 43.065 471.2 43.065C474.5 43.065 477.14 45.21 477.14 48.785V66ZM534.756 44.304H538.34C546.34 44.304 549.668 46.736 549.668 51.088C549.668 55.44 546.212 58.384 540.772 58.384C534.756 58.384 528.932 55.696 525.476 52.24H524.196V61.008C527.588 64.464 533.54 67.088 541.348 67.088C551.844 67.088 559.012 60.304 559.012 51.408C559.012 43.536 553.38 38.864 546.34 37.584C550.244 34.704 553.764 31.888 558.564 27.344V18.64H525.22V26.64H547.812C543.396 30.736 538.98 34.064 534.756 37.136V44.304ZM564.62 66H597.836V58H578.38L592.332 43.344C596.3 39.248 598.028 35.728 598.028 31.696C598.028 23.888 591.564 17.68 581.772 17.68C574.796 17.68 569.356 20.24 565.644 24.144V32.272H567.308C570.828 28.56 575.5 26.192 580.492 26.192C585.036 26.192 588.428 28.304 588.428 32.144C588.428 35.152 586.316 37.648 583.18 40.656L564.62 59.088V66ZM622.583 66.768C636.023 66.768 642.295 55.888 642.295 42.256C642.295 29.264 636.599 17.872 622.647 17.872C608.567 17.872 602.999 29.392 602.999 42.384C602.999 55.696 609.271 66.768 622.583 66.768ZM622.583 58C614.519 58 612.343 50.832 612.343 42.256C612.343 34.32 614.263 26.512 622.711 26.512C630.775 26.512 632.951 34 632.951 42.256C632.951 50.768 630.903 58 622.583 58Z" fill="white"/>
<path d="M695.516 61.1146C695.012 59.8812 694.498 58.6477 693.937 57.4329C693.442 56.349 692.806 56.0312 691.62 56.3022C690.115 56.648 688.639 57.1059 687.134 57.4142C684.228 58.0216 681.313 58.0777 678.444 57.1713C674.846 56.0406 672.931 53.4335 671.753 50.0695H681.509C682.275 50.0695 682.892 49.4527 682.892 48.6865V45.6122C682.892 44.8459 682.275 44.2292 681.509 44.2292H670.819C670.819 43.3695 670.81 42.5472 670.819 41.7249H681.509C682.275 41.7249 682.892 41.1082 682.892 40.3419V37.2676C682.892 36.5013 682.275 35.8846 681.509 35.8846H672.165C672.165 35.8472 672.165 35.8098 672.183 35.7912C673.305 33.2401 674.94 31.1937 677.622 30.1284C680.743 28.8949 683.929 28.923 687.144 29.5864C688.667 29.8948 690.162 30.362 691.685 30.7078C692.797 30.9601 693.442 30.633 693.918 29.5958C694.47 28.3997 694.974 27.1849 695.479 25.9608C695.956 24.8114 695.675 23.9985 694.591 23.363C694.32 23.2042 694.04 23.0734 693.75 22.9612C689.246 21.2045 684.602 20.5503 679.808 21.3166C676.435 21.8586 673.286 23.0173 670.567 25.1291C667.137 27.783 664.913 31.2871 663.624 35.408L663.465 35.8846H658.662C657.896 35.8846 657.279 36.5013 657.279 37.2676V40.3419C657.279 41.1082 657.896 41.7249 658.662 41.7249H662.446C662.446 42.5659 662.446 43.3789 662.446 44.2292H658.662C657.896 44.2292 657.279 44.8459 657.279 45.6122V48.6865C657.279 49.4527 657.896 50.0695 658.662 50.0695H663.222C663.568 51.1908 663.857 52.3308 664.296 53.4055C666.605 58.9747 670.473 62.9368 676.295 64.8244C681.107 66.3849 685.957 66.3382 690.807 65.0019C692.068 64.6562 693.32 64.2076 694.516 63.6563C695.675 63.1237 695.974 62.2266 695.516 61.1146Z" fill="white"/>
<defs>
<linearGradient id="paint0_linear" x1="446" y1="43.0001" x2="839.349" y2="35.2934" gradientUnits="userSpaceOnUse">
<stop offset="0.0774349" stop-color="#416394"/>
<stop offset="1" stop-color="#D2E5FF" stop-opacity="0"/>
</linearGradient>
</defs>
</svg>
