<svg width="45" height="40" viewBox="0 0 45 40" fill="none" xmlns="http://www.w3.org/2000/svg">
<path d="M39.8841 19.9192C39.4605 19.4908 38.7722 19.4908 38.4015 19.9192L24.8995 33.5741C24.6877 33.7883 24.5818 34.0561 24.5818 34.3238L24.5288 38.929C24.5288 39.1968 24.6347 39.5181 24.8465 39.6787C25.0583 39.8929 25.323 40 25.5878 40H30.3532C30.618 40 30.9357 39.8929 31.0945 39.6787L44.3848 25.9702C44.8084 25.5418 44.8084 24.8993 44.3848 24.4709L39.8841 19.9192ZM30.9357 36.5729L27.9176 33.5741L36.5483 24.8457L39.5664 27.898C39.5664 27.898 39.5664 27.898 39.6194 27.9515L31.0416 36.7335C30.9886 36.68 30.9357 36.6264 30.9357 36.5729ZM26.6997 35.3413L29.1883 37.858H26.6468L26.6997 35.3413ZM41.049 26.3986C41.049 26.3451 41.049 26.3451 41.049 26.3986L38.0309 23.3463L39.1428 22.2218L42.1609 25.2741L41.049 26.3986Z" fill="#416394"/>
<path d="M13.939 29.2367V34.1096C13.939 34.538 14.1508 34.9129 14.5214 35.0735C14.6803 35.1271 14.8391 35.1806 14.998 35.1806C15.2098 35.1806 15.4745 35.1271 15.6334 34.9664L22.8874 29.2903H25.5878C26.1703 29.2903 26.6468 28.8083 26.6468 28.2193C26.6468 27.6303 26.1703 27.1483 25.5878 27.1483H22.5168C22.305 27.1483 22.0402 27.2019 21.8814 27.3625L16.057 31.9141V28.2193C16.057 27.6303 15.5804 27.1483 14.998 27.1483C8.27341 27.1483 2.81963 21.6328 2.81963 14.8321C2.81963 8.03143 8.27341 2.51591 14.998 2.51591H29.8238C36.5483 2.51591 42.0021 8.03143 42.0021 14.8321C42.0021 15.9566 41.8433 17.1347 41.5256 18.2057C41.3667 18.7947 41.6844 19.3838 42.2668 19.5444C42.8493 19.705 43.4317 19.3838 43.5906 18.7947C43.9612 17.5095 44.1201 16.1708 44.1201 14.8321C44.1201 6.85336 37.7132 0.373962 29.8238 0.373962H14.998C7.10852 0.373962 0.70166 6.85336 0.70166 14.8321C0.70166 22.436 6.52608 28.7012 13.939 29.2367Z" fill="#416394"/>
</svg>
