<svg width="19" height="21" viewBox="0 0 19 21" fill="none" xmlns="http://www.w3.org/2000/svg">
<path d="M18.3742 18.7201C18.1387 18.1445 17.8989 17.5689 17.6372 17.002C17.4061 16.4962 17.1096 16.3479 16.5558 16.4744C15.8537 16.6357 15.1647 16.8494 14.4626 16.9933C13.1064 17.2767 11.7459 17.3029 10.4071 16.8799C8.72823 16.3523 7.83428 15.1356 7.28483 13.5657H11.8374C12.195 13.5657 12.4828 13.2779 12.4828 12.9204V11.4857C12.4828 11.1281 12.195 10.8403 11.8374 10.8403H6.84875C6.84875 10.4391 6.84439 10.0553 6.84875 9.6716H11.8374C12.195 9.6716 12.4828 9.38379 12.4828 9.02621V7.59152C12.4828 7.23394 12.195 6.94613 11.8374 6.94613H7.4767C7.4767 6.92869 7.4767 6.91125 7.48542 6.90252C8.00871 5.71204 8.77184 4.75704 10.0234 4.25991C11.4799 3.68429 12.9669 3.69738 14.467 4.00699C15.1778 4.15089 15.8755 4.36893 16.5863 4.53028C17.1052 4.64802 17.4061 4.49539 17.6285 4.01135C17.8858 3.45317 18.1213 2.88628 18.3568 2.31502C18.5792 1.77865 18.4483 1.39926 17.9425 1.10273C17.816 1.0286 17.6852 0.967549 17.55 0.91522C15.4481 0.0954003 13.2809 -0.209852 11.0438 0.147729C9.46956 0.400652 7.99999 0.941385 6.73101 1.92691C5.13062 3.16536 4.09276 4.80064 3.49098 6.72373L3.41684 6.94613H1.17542C0.817839 6.94613 0.530029 7.23394 0.530029 7.59152V9.02621C0.530029 9.38379 0.817839 9.6716 1.17542 9.6716H2.94152C2.94152 10.0641 2.94152 10.4434 2.94152 10.8403H1.17542C0.817839 10.8403 0.530029 11.1281 0.530029 11.4857V12.9204C0.530029 13.2779 0.817839 13.5657 1.17542 13.5657H3.30346C3.46481 14.089 3.59999 14.621 3.80495 15.1225C4.88205 17.7215 6.6874 19.5705 9.40415 20.4514C11.6499 21.1796 13.9132 21.1578 16.1764 20.5342C16.7651 20.3729 17.3494 20.1636 17.9076 19.9063C18.4483 19.6577 18.5879 19.2391 18.3742 18.7201Z" fill="#162439"/>
</svg>
