<svg width="30" height="30" viewBox="0 0 30 30" fill="none" xmlns="http://www.w3.org/2000/svg">
<path d="M27.6775 26.7431C27.3411 25.9208 26.9985 25.0985 26.6247 24.2886C26.2945 23.566 25.8709 23.3542 25.0798 23.5348C24.0768 23.7653 23.0925 24.0706 22.0895 24.2761C20.1521 24.6811 18.2085 24.7184 16.296 24.1142C13.8976 23.3604 12.6205 21.6223 11.8356 19.3796H18.3393C18.8501 19.3796 19.2613 18.9685 19.2613 18.4577V16.4081C19.2613 15.8973 18.8501 15.4861 18.3393 15.4861H11.2126C11.2126 14.913 11.2064 14.3648 11.2126 13.8166H18.3393C18.8501 13.8166 19.2613 13.4054 19.2613 12.8946V10.845C19.2613 10.3342 18.8501 9.92306 18.3393 9.92306H12.1097C12.1097 9.89814 12.1097 9.87322 12.1221 9.86076C12.8697 8.16007 13.9599 6.79578 15.7478 6.0856C17.8285 5.26329 19.9528 5.28198 22.0958 5.72429C23.1112 5.92986 24.1079 6.24134 25.1234 6.47184C25.8647 6.64004 26.2945 6.422 26.6123 5.73051C26.9798 4.93312 27.3162 4.12327 27.6526 3.30719C27.9703 2.54094 27.7834 1.99896 27.0608 1.57535C26.8801 1.46944 26.6932 1.38223 26.5001 1.30747C23.4974 0.136301 20.4013 -0.299773 17.2055 0.211057C14.9566 0.572376 12.8572 1.34485 11.0444 2.75275C8.75812 4.52197 7.27547 6.85808 6.41578 9.60535L6.30987 9.92306H3.10784C2.59701 9.92306 2.18585 10.3342 2.18585 10.845V12.8946C2.18585 13.4054 2.59701 13.8166 3.10784 13.8166H5.63084C5.63084 14.3773 5.63084 14.9192 5.63084 15.4861H3.10784C2.59701 15.4861 2.18585 15.8973 2.18585 16.4081V18.4577C2.18585 18.9685 2.59701 19.3796 3.10784 19.3796H6.1479C6.3784 20.1272 6.57152 20.8872 6.86431 21.6036C8.40303 25.3165 10.9821 27.9579 14.8632 29.2162C18.0714 30.2566 21.3046 30.2254 24.5378 29.3346C25.3788 29.1041 26.2136 28.8051 27.011 28.4375C27.7834 28.0825 27.9828 27.4844 27.6775 26.7431Z" fill="#416394"/>
</svg>
