<svg width="22" height="22" viewBox="0 0 22 22" fill="none" xmlns="http://www.w3.org/2000/svg">
<g clip-path="url(#clip0)">
<path d="M20.2969 19.6116C20.0502 19.0086 19.799 18.4055 19.5249 17.8116C19.2827 17.2817 18.9721 17.1264 18.3919 17.2589C17.6564 17.4279 16.9346 17.6517 16.1991 17.8025C14.7783 18.0994 13.353 18.1269 11.9505 17.6837C10.1916 17.1309 9.2551 15.8564 8.67948 14.2117H13.4489C13.8235 14.2117 14.125 13.9102 14.125 13.5356V12.0326C14.125 11.658 13.8235 11.3565 13.4489 11.3565H8.22264C8.22264 10.9362 8.21807 10.5342 8.22264 10.1321H13.4489C13.8235 10.1321 14.125 9.83064 14.125 9.45603V7.95302C14.125 7.57841 13.8235 7.2769 13.4489 7.2769H8.88049C8.88049 7.25863 8.88049 7.24035 8.88963 7.23122C9.43783 5.98404 10.2373 4.98356 11.5484 4.46277C13.0743 3.85974 14.6321 3.87344 16.2036 4.1978C16.9483 4.34856 17.6792 4.57698 18.4239 4.74601C18.9675 4.86935 19.2827 4.70946 19.5157 4.20237C19.7853 3.61761 20.032 3.02372 20.2786 2.42526C20.5116 1.86335 20.3746 1.46589 19.8446 1.15524C19.7122 1.07758 19.5751 1.01362 19.4335 0.958802C17.2315 0.0999432 14.961 -0.219845 12.6174 0.154764C10.9682 0.419731 9.4287 0.986213 8.09929 2.01867C6.42269 3.3161 5.33541 5.02925 4.70497 7.04391L4.62731 7.2769H2.27915C1.90454 7.2769 1.60303 7.57841 1.60303 7.95302V9.45603C1.60303 9.83064 1.90454 10.1321 2.27915 10.1321H4.12935C4.12935 10.5433 4.12935 10.9408 4.12935 11.3565H2.27915C1.90454 11.3565 1.60303 11.658 1.60303 12.0326V13.5356C1.60303 13.9102 1.90454 14.2117 2.27915 14.2117H4.50853C4.67756 14.7599 4.81918 15.3173 5.0339 15.8426C6.16229 18.5654 8.05361 20.5024 10.8997 21.4252C13.2524 22.1882 15.6234 22.1653 17.9944 21.512C18.6112 21.343 19.2233 21.1237 19.8081 20.8542C20.3746 20.5938 20.5208 20.1552 20.2969 19.6116Z" fill="#416394"/>
</g>
<defs>
<clipPath id="clip0">
<rect width="22" height="22" fill="white"/>
</clipPath>
</defs>
</svg>
