<svg width="176" height="46" viewBox="0 0 176 46" fill="none" xmlns="http://www.w3.org/2000/svg">
<path d="M76.992 18C76.464 16.944 76.464 15.672 76.464 14.472C76.464 12.552 76.512 11.376 76.512 9.816C76.512 8.568 76.44 8.112 76.176 7.56C75.24 5.568 72.24 5.256 70.32 5.256C66.24 5.256 64.248 6.6 64.128 9.408H68.568C68.736 8.448 69.168 8.16 70.32 8.16C71.376 8.16 71.88 8.496 71.88 9.24C71.88 10.44 70.152 10.368 69.312 10.488C66.768 10.848 63.552 11.16 63.552 14.52C63.552 16.968 65.232 18.408 68.04 18.408C69.696 18.408 70.872 17.976 72 16.848C72.024 17.304 72.048 17.448 72.192 18H76.992ZM71.904 12.36V13.104C71.904 13.92 71.832 14.304 71.616 14.664C71.256 15.264 70.56 15.624 69.744 15.624C68.904 15.624 68.4 15.144 68.4 14.376C68.4 13.704 68.808 13.272 69.696 13.08C70.464 12.912 71.256 12.792 71.904 12.36ZM87.1759 5.616H84.6079V1.8H79.8799V5.616H77.8399V8.568H79.8799V14.112C79.8799 17.112 81.2239 18.168 84.6799 18.168C85.6639 18.168 86.0959 18.144 87.1759 18.072V14.64C86.8639 14.688 86.5039 14.688 86.1919 14.688C84.7279 14.688 84.6079 14.208 84.6079 12.984V8.568H87.1759V5.616ZM96.9493 5.616H94.3813V1.8H89.6533V5.616H87.6133V8.568H89.6533V14.112C89.6533 17.112 90.9973 18.168 94.4533 18.168C95.4373 18.168 95.8693 18.144 96.9493 18.072V14.64C96.6373 14.688 96.2773 14.688 95.9653 14.688C94.5013 14.688 94.3813 14.208 94.3813 12.984V8.568H96.9493V5.616ZM111.379 14.28H106.939C106.459 15.024 105.883 15.312 104.947 15.312C103.483 15.312 102.595 14.424 102.523 12.84H111.643V12.48C111.643 8.112 108.979 5.304 104.803 5.304C100.819 5.304 97.9628 8.088 97.9628 11.952C97.9628 16.08 101.107 18.36 104.971 18.36C107.659 18.36 110.611 17.064 111.379 14.28ZM107.011 10.464H102.547C102.787 9.048 103.555 8.352 104.827 8.352C106.219 8.352 106.891 9.192 107.011 10.464ZM125.128 9.24C124.864 6 122.176 5.256 119.248 5.256C115.336 5.256 113.224 6.624 113.224 9.168C113.224 12.216 116.08 12.648 118.408 13.152C120.112 13.536 120.832 13.584 120.832 14.352C120.832 14.952 120.28 15.336 119.344 15.336C118.12 15.336 117.568 14.904 117.448 13.872H112.96C113.248 17.328 116.056 18.312 119.248 18.312C123.16 18.312 125.488 16.704 125.488 13.968C125.488 11.064 122.944 10.44 120.592 10.008C120.016 9.912 117.856 9.792 117.856 8.832C117.856 8.328 118.312 8.088 119.152 8.088C120.256 8.088 120.664 8.352 120.832 9.24H125.128ZM135.621 5.616H133.053V1.8H128.325V5.616H126.285V8.568H128.325V14.112C128.325 17.112 129.669 18.168 133.125 18.168C134.109 18.168 134.541 18.144 135.621 18.072V14.64C135.309 14.688 134.949 14.688 134.637 14.688C133.173 14.688 133.053 14.208 133.053 12.984V8.568H135.621V5.616ZM76.992 41C76.464 39.944 76.464 38.672 76.464 37.472C76.464 35.552 76.512 34.376 76.512 32.816C76.512 31.568 76.44 31.112 76.176 30.56C75.24 28.568 72.24 28.256 70.32 28.256C66.24 28.256 64.248 29.6 64.128 32.408H68.568C68.736 31.448 69.168 31.16 70.32 31.16C71.376 31.16 71.88 31.496 71.88 32.24C71.88 33.44 70.152 33.368 69.312 33.488C66.768 33.848 63.552 34.16 63.552 37.52C63.552 39.968 65.232 41.408 68.04 41.408C69.696 41.408 70.872 40.976 72 39.848C72.024 40.304 72.048 40.448 72.192 41H76.992ZM71.904 35.36V36.104C71.904 36.92 71.832 37.304 71.616 37.664C71.256 38.264 70.56 38.624 69.744 38.624C68.904 38.624 68.4 38.144 68.4 37.376C68.4 36.704 68.808 36.272 69.696 36.08C70.464 35.912 71.256 35.792 71.904 35.36ZM91.9039 23.912H87.1759V29.96C86.1919 28.808 85.1119 28.304 83.6479 28.304C80.4799 28.304 78.4159 30.824 78.4159 34.712C78.4159 38.72 80.5759 41.312 83.9119 41.312C85.4239 41.312 86.4799 40.808 87.3679 39.656V41H91.9039V23.912ZM85.2559 31.928C86.5999 31.928 87.3439 32.936 87.3439 34.76C87.3439 36.56 86.5999 37.544 85.2559 37.544C83.8879 37.544 83.1919 36.608 83.1919 34.784C83.1919 32.912 83.9119 31.928 85.2559 31.928ZM106.77 28.616H101.97L100.866 32.552C100.482 33.92 100.098 35.408 99.9544 36.824C99.7624 35.288 99.4264 33.776 99.0184 32.264L98.0344 28.616H93.0184L97.1464 41H102.714L106.77 28.616ZM112.714 23.912H107.962V27.224H112.714V23.912ZM112.714 28.616H107.962V41H112.714V28.616ZM126.933 32.24C126.669 29 123.981 28.256 121.053 28.256C117.141 28.256 115.029 29.624 115.029 32.168C115.029 35.216 117.885 35.648 120.213 36.152C121.917 36.536 122.637 36.584 122.637 37.352C122.637 37.952 122.085 38.336 121.149 38.336C119.925 38.336 119.373 37.904 119.253 36.872H114.765C115.053 40.328 117.861 41.312 121.053 41.312C124.965 41.312 127.293 39.704 127.293 36.968C127.293 34.064 124.749 33.44 122.397 33.008C121.821 32.912 119.661 32.792 119.661 31.832C119.661 31.328 120.117 31.088 120.957 31.088C122.061 31.088 122.469 31.352 122.637 32.24H126.933ZM135.53 28.256C131.474 28.256 128.666 30.92 128.666 34.808C128.666 38.696 131.45 41.36 135.482 41.36C139.49 41.36 142.274 38.648 142.274 34.76C142.274 30.896 139.514 28.256 135.53 28.256ZM135.434 31.688C137.21 31.688 137.522 33.368 137.522 34.76C137.522 36.128 137.258 37.952 135.482 37.952C133.73 37.952 133.418 36.176 133.418 34.808C133.418 32.72 134.09 31.688 135.434 31.688ZM153.719 28.496C153.215 28.328 153.023 28.28 152.495 28.28C150.719 28.28 149.663 29.048 148.799 30.536L148.823 28.616H144.287V41H149.015V35.384C149.015 33.464 150.023 32.312 151.967 32.312C152.519 32.312 152.927 32.384 153.719 32.648V28.496ZM167.546 28.616H162.674L161.306 33.368C161.09 34.136 160.946 34.832 160.634 36.392C160.418 35 160.298 34.448 160.034 33.512L158.642 28.616H153.601L157.634 39.608C157.73 39.848 157.778 40.04 157.778 40.208C157.778 41.216 156.698 41.24 155.954 41.24C155.162 41.24 155.354 41.24 154.85 41.216V45.008H157.946C160.898 45.008 162.026 44.024 163.01 41.288L167.546 28.616Z" fill="white"/>
<path d="M0 33L9 26V41H0V33Z" fill="white"/>
<path d="M11 25.2015L19 19V41H11V25.2015Z" fill="white"/>
<path d="M21 18.2189L29 12V41H21V18.2189Z" fill="white"/>
<path d="M31 2L57 25.7656V41H31V2Z" fill="white"/>
</svg>
