<svg width="35" height="45" viewBox="0 0 35 45" fill="none" xmlns="http://www.w3.org/2000/svg">
<path d="M17.5 39C17.6484 39 17.7944 38.9615 17.9244 38.888C18.0544 38.8145 18.1641 38.7085 18.2433 38.5798L28.8909 21.2733C30.1891 19.1804 30.9151 16.7682 30.993 14.2891C31.0709 11.8099 30.4977 9.35486 29.3335 7.18062C28.1693 5.00638 26.4568 3.19284 24.3751 1.92964C22.2934 0.666445 19.9189 0 17.5 0C15.0811 0 12.7067 0.666445 10.6249 1.92964C8.54321 3.19284 6.8307 5.00638 5.66649 7.18062C4.50228 9.35486 3.92914 11.8099 4.007 14.2891C4.08486 16.7682 4.81086 19.1804 6.10908 21.2733L16.7567 38.5798C16.8359 38.7085 16.9456 38.8145 17.0756 38.888C17.2056 38.9615 17.3516 39 17.5 39ZM8.90174 5.64291C9.99667 4.42437 11.326 3.45179 12.8059 2.78655C14.2858 2.12131 15.8842 1.77785 17.5 1.77785C19.1158 1.77785 20.7142 2.12131 22.1941 2.78655C23.674 3.45179 25.0033 4.42437 26.0983 5.64291C27.8566 7.60153 28.9373 10.0993 29.1733 12.7505C29.4094 15.4017 28.7877 18.0588 27.4042 20.3116L17.5 36.4099L7.59576 20.3116C6.21234 18.0588 5.59064 15.4017 5.82668 12.7505C6.06272 10.0993 7.14337 7.60153 8.90174 5.64291Z" fill="#416394"/>
<path d="M25 13.9717C24.994 12.5885 24.549 11.2379 23.7213 10.0904C22.8935 8.94303 21.7201 8.05023 20.3491 7.52475C18.9782 6.99928 17.4711 6.86469 16.0183 7.13798C14.5654 7.41127 13.2319 8.08018 12.186 9.06027C11.1401 10.0404 10.4288 11.2877 10.1419 12.6448C9.85497 14.0019 10.0053 15.4079 10.5738 16.6853C11.1424 17.9628 12.1037 19.0543 13.3364 19.8223C14.5691 20.5902 16.018 21 17.5 21C19.4925 20.9941 21.401 20.2508 22.8071 18.9332C24.2131 17.6156 25.0017 15.8313 25 13.9717ZM11.8357 13.9717C11.8417 12.9273 12.179 11.908 12.805 11.0423C13.4311 10.1766 14.3178 9.50339 15.3534 9.10759C16.3889 8.71178 17.5269 8.61111 18.6237 8.81829C19.7204 9.02547 20.7269 9.53121 21.5161 10.2717C22.3052 11.0122 22.8417 11.9542 23.0578 12.979C23.2739 14.0037 23.16 15.0653 22.7304 16.0297C22.3007 16.994 21.5747 17.818 20.6439 18.3977C19.713 18.9774 18.6191 19.2867 17.5 19.2867C15.9943 19.2814 14.5523 18.7188 13.4904 17.7224C12.4285 16.7259 11.8334 15.3771 11.8357 13.9717H11.8357Z" fill="#416394"/>
<path d="M0 39.3333C0 43.0537 8.80377 45 17.5 45C26.1962 45 35 43.0537 35 39.3333C35 36.4572 29.7098 34.6858 23.6108 34L22.5339 35.6237C29.4161 36.2672 33.1898 38.122 33.1898 39.3333C33.1898 40.9417 27.0777 43.2781 17.5 43.2781C7.92227 43.2781 1.81015 40.9417 1.81015 39.3333C1.81015 38.122 5.58391 36.2672 12.466 35.6237L11.3892 34C5.29016 34.6858 0 36.4572 0 39.3333Z" fill="#416394"/>
</svg>
