<svg width="45" height="30" viewBox="0 0 45 30" fill="none" xmlns="http://www.w3.org/2000/svg">
<path d="M3.22112 0C1.49878 0 0.0959473 1.41436 0.0959473 3.15086V26.2571C0.0959473 27.9936 1.49878 29.408 3.22112 29.408H41.7649C43.4872 29.408 44.8901 27.9936 44.8901 26.2571V3.15086C44.8901 1.41436 43.4872 0 41.7649 0H3.22112ZM3.22112 1.05029H41.7649C42.9281 1.05029 43.8484 1.97805 43.8484 3.15086V26.2571C43.8484 27.43 42.9281 28.3577 41.7649 28.3577H3.22112C2.05787 28.3577 1.13767 27.43 1.13767 26.2571V3.15086C1.13767 1.97805 2.05787 1.05029 3.22112 1.05029ZM12.5966 7.352C10.8768 7.352 9.47146 8.76891 9.47146 10.5029C9.47146 12.2368 10.8768 13.6537 12.5966 13.6537C14.3164 13.6537 15.7218 12.2368 15.7218 10.5029C15.7218 8.76891 14.3164 7.352 12.5966 7.352ZM24.0556 7.87714C23.7679 7.87714 23.5347 8.11225 23.5347 8.40229C23.5347 8.69232 23.7679 8.92743 24.0556 8.92743H39.6815C39.9691 8.92743 40.2023 8.69232 40.2023 8.40229C40.2023 8.11225 39.9691 7.87714 39.6815 7.87714H24.0556ZM12.5966 8.40229C13.7535 8.40229 14.6801 9.33653 14.6801 10.5029C14.6801 11.6692 13.7535 12.6034 12.5966 12.6034C11.4398 12.6034 10.5132 11.6692 10.5132 10.5029C10.5132 9.33653 11.4398 8.40229 12.5966 8.40229ZM24.0556 14.1789C23.7679 14.1789 23.5347 14.414 23.5347 14.704C23.5347 14.994 23.7679 15.2291 24.0556 15.2291H39.6815C39.9691 15.2291 40.2023 14.994 40.2023 14.704C40.2023 14.414 39.9691 14.1789 39.6815 14.1789H24.0556ZM12.5966 15.7543C10.6289 15.7543 8.84245 16.2697 7.51823 17.1328C6.19401 17.9959 5.30457 19.2346 5.30457 20.6447V21.5309C5.30458 21.6701 5.35946 21.8037 5.45714 21.9022C5.55482 22.0007 5.68729 22.056 5.82543 22.056H19.3678C19.506 22.056 19.6385 22.0007 19.7361 21.9022C19.8338 21.8037 19.8887 21.6701 19.8887 21.5309V20.6447C19.8887 19.2346 18.9993 17.9959 17.675 17.1328C16.3508 16.2697 14.5643 15.7543 12.5966 15.7543ZM12.5966 16.8046C14.3802 16.8046 15.9818 17.2867 17.1053 18.019C18.2289 18.7513 18.847 19.6842 18.847 20.6447V21.0057H6.34629V20.6447C6.34629 19.6842 6.96435 18.7513 8.08792 18.019C9.21149 17.2867 10.8131 16.8046 12.5966 16.8046ZM24.0556 20.4806C23.7679 20.4806 23.5347 20.7157 23.5347 21.0057C23.5347 21.2958 23.7679 21.5309 24.0556 21.5309H39.6815C39.9691 21.5309 40.2023 21.2958 40.2023 21.0057C40.2023 20.7157 39.9691 20.4806 39.6815 20.4806H24.0556Z" fill="#416394"/>
</svg>
