<svg width="145" height="41" viewBox="0 0 145 41" fill="none" xmlns="http://www.w3.org/2000/svg">
<path d="M60.8412 15C60.4012 14.12 60.4012 13.06 60.4012 12.06C60.4012 10.46 60.4412 9.48 60.4412 8.18C60.4412 7.14 60.3812 6.76 60.1612 6.3C59.3812 4.64 56.8812 4.38 55.2812 4.38C51.8812 4.38 50.2212 5.5 50.1212 7.84H53.8212C53.9612 7.04 54.3212 6.8 55.2812 6.8C56.1612 6.8 56.5812 7.08 56.5812 7.7C56.5812 8.7 55.1412 8.64 54.4412 8.74C52.3212 9.04 49.6412 9.3 49.6412 12.1C49.6412 14.14 51.0412 15.34 53.3812 15.34C54.7612 15.34 55.7412 14.98 56.6812 14.04C56.7012 14.42 56.7212 14.54 56.8412 15H60.8412ZM56.6012 10.3V10.92C56.6012 11.6 56.5412 11.92 56.3612 12.22C56.0612 12.72 55.4812 13.02 54.8012 13.02C54.1012 13.02 53.6812 12.62 53.6812 11.98C53.6812 11.42 54.0212 11.06 54.7612 10.9C55.4012 10.76 56.0612 10.66 56.6012 10.3ZM69.3277 4.68H67.1877V1.5H63.2477V4.68H61.5477V7.14H63.2477V11.76C63.2477 14.26 64.3677 15.14 67.2477 15.14C68.0677 15.14 68.4277 15.12 69.3277 15.06V12.2C69.0677 12.24 68.7677 12.24 68.5077 12.24C67.2877 12.24 67.1877 11.84 67.1877 10.82V7.14H69.3277V4.68ZM77.4722 4.68H75.3322V1.5H71.3922V4.68H69.6922V7.14H71.3922V11.76C71.3922 14.26 72.5122 15.14 75.3922 15.14C76.2122 15.14 76.5722 15.12 77.4722 15.06V12.2C77.2122 12.24 76.9122 12.24 76.6522 12.24C75.4322 12.24 75.3322 11.84 75.3322 10.82V7.14H77.4722V4.68ZM60.8412 34C60.4012 33.12 60.4012 32.06 60.4012 31.06C60.4012 29.46 60.4412 28.48 60.4412 27.18C60.4412 26.14 60.3812 25.76 60.1612 25.3C59.3812 23.64 56.8812 23.38 55.2812 23.38C51.8812 23.38 50.2212 24.5 50.1212 26.84H53.8212C53.9612 26.04 54.3212 25.8 55.2812 25.8C56.1612 25.8 56.5812 26.08 56.5812 26.7C56.5812 27.7 55.1412 27.64 54.4412 27.74C52.3212 28.04 49.6412 28.3 49.6412 31.1C49.6412 33.14 51.0412 34.34 53.3812 34.34C54.7612 34.34 55.7412 33.98 56.6812 33.04C56.7012 33.42 56.7212 33.54 56.8412 34H60.8412ZM56.6012 29.3V29.92C56.6012 30.6 56.5412 30.92 56.3612 31.22C56.0612 31.72 55.4812 32.02 54.8012 32.02C54.1012 32.02 53.6812 31.62 53.6812 30.98C53.6812 30.42 54.0212 30.06 54.7612 29.9C55.4012 29.76 56.0612 29.66 56.6012 29.3ZM73.2677 19.76H69.3277V24.8C68.5077 23.84 67.6077 23.42 66.3877 23.42C63.7477 23.42 62.0277 25.52 62.0277 28.76C62.0277 32.1 63.8277 34.26 66.6077 34.26C67.8677 34.26 68.7477 33.84 69.4877 32.88V34H73.2677V19.76ZM67.7277 26.44C68.8477 26.44 69.4677 27.28 69.4677 28.8C69.4677 30.3 68.8477 31.12 67.7277 31.12C66.5877 31.12 66.0077 30.34 66.0077 28.82C66.0077 27.26 66.6077 26.44 67.7277 26.44ZM85.6565 23.68H81.6565L80.7365 26.96C80.4165 28.1 80.0965 29.34 79.9765 30.52C79.8165 29.24 79.5365 27.98 79.1965 26.72L78.3765 23.68H74.1965L77.6365 34H82.2765L85.6565 23.68ZM90.6097 19.76H86.6497V22.52H90.6097V19.76ZM90.6097 23.68H86.6497V34H90.6097V23.68ZM102.458 26.7C102.238 24 99.9983 23.38 97.5583 23.38C94.2983 23.38 92.5383 24.52 92.5383 26.64C92.5383 29.18 94.9183 29.54 96.8583 29.96C98.2783 30.28 98.8783 30.32 98.8783 30.96C98.8783 31.46 98.4183 31.78 97.6383 31.78C96.6183 31.78 96.1583 31.42 96.0583 30.56H92.3183C92.5583 33.44 94.8983 34.26 97.5583 34.26C100.818 34.26 102.758 32.92 102.758 30.64C102.758 28.22 100.638 27.7 98.6783 27.34C98.1983 27.26 96.3983 27.16 96.3983 26.36C96.3983 25.94 96.7783 25.74 97.4783 25.74C98.3983 25.74 98.7383 25.96 98.8783 26.7H102.458ZM109.623 23.38C106.243 23.38 103.903 25.6 103.903 28.84C103.903 32.08 106.223 34.3 109.583 34.3C112.923 34.3 115.243 32.04 115.243 28.8C115.243 25.58 112.943 23.38 109.623 23.38ZM109.543 26.24C111.023 26.24 111.283 27.64 111.283 28.8C111.283 29.94 111.063 31.46 109.583 31.46C108.123 31.46 107.863 29.98 107.863 28.84C107.863 27.1 108.423 26.24 109.543 26.24ZM124.78 23.58C124.36 23.44 124.2 23.4 123.76 23.4C122.28 23.4 121.4 24.04 120.68 25.28L120.7 23.68H116.92V34H120.86V29.32C120.86 27.72 121.7 26.76 123.32 26.76C123.78 26.76 124.12 26.82 124.78 27.04V23.58ZM136.302 23.68H132.242L131.102 27.64C130.922 28.28 130.802 28.86 130.542 30.16C130.362 29 130.262 28.54 130.042 27.76L128.882 23.68H124.682L128.042 32.84C128.122 33.04 128.162 33.2 128.162 33.34C128.162 34.18 127.262 34.2 126.642 34.2C125.982 34.2 126.142 34.2 125.722 34.18V37.34H128.302C130.762 37.34 131.702 36.52 132.522 34.24L136.302 23.68Z" fill="#416394"/>
<path d="M89.4968 11.9H85.7968C85.3968 12.52 84.9168 12.76 84.1368 12.76C82.9168 12.76 82.1768 12.02 82.1168 10.7H89.7168V10.4C89.7168 6.76 87.4968 4.42 84.0168 4.42C80.6968 4.42 78.3168 6.74 78.3168 9.96C78.3168 13.4 80.9368 15.3 84.1568 15.3C86.3968 15.3 88.8568 14.22 89.4968 11.9ZM85.8568 8.72H82.1368C82.3368 7.54 82.9768 6.96 84.0368 6.96C85.1968 6.96 85.7568 7.66 85.8568 8.72ZM100.954 7.7C100.734 5 98.4944 4.38 96.0544 4.38C92.7944 4.38 91.0344 5.52 91.0344 7.64C91.0344 10.18 93.4144 10.54 95.3544 10.96C96.7744 11.28 97.3744 11.32 97.3744 11.96C97.3744 12.46 96.9144 12.78 96.1344 12.78C95.1144 12.78 94.6544 12.42 94.5544 11.56H90.8144C91.0544 14.44 93.3944 15.26 96.0544 15.26C99.3144 15.26 101.254 13.92 101.254 11.64C101.254 9.22 99.1344 8.7 97.1744 8.34C96.6944 8.26 94.8944 8.16 94.8944 7.36C94.8944 6.94 95.2744 6.74 95.9744 6.74C96.8944 6.74 97.2344 6.96 97.3744 7.7H100.954ZM109.699 4.68H107.559V1.5H103.619V4.68H101.919V7.14H103.619V11.76C103.619 14.26 104.739 15.14 107.619 15.14C108.439 15.14 108.799 15.12 109.699 15.06V12.2C109.439 12.24 109.139 12.24 108.879 12.24C107.659 12.24 107.559 11.84 107.559 10.82V7.14H109.699V4.68Z" fill="#38D4B8"/>
<path d="M-0.00012207 27.0257L6.65306 20.9231V34H-0.00012207V27.0257Z" fill="#416394"/>
<path d="M8.13147 20.227L14.0454 14.8205V34H8.13147V20.227Z" fill="#416394"/>
<path d="M15.524 14.1396L21.438 8.71796V34H15.524V14.1396Z" fill="#416394"/>
<path d="M22.9164 0L42.1367 20.7188V34H22.9164V0Z" fill="#416394"/>
</svg>
