<svg width="39" height="45" viewBox="0 0 39 45" fill="none" xmlns="http://www.w3.org/2000/svg">
<path d="M32.7889 25.5797L25.7833 23.0435C24.9167 22.6812 24.05 21.8841 23.9056 21.2319C27.0111 18.3333 28.8889 12.8986 28.8889 9.42029C28.8889 4.2029 24.7 0 19.5 0C14.3 0 10.1111 4.2029 10.1111 9.42029C10.1111 12.8261 12.0611 18.2609 15.0944 21.2319C14.95 21.8841 14.0833 22.6087 13.2167 23.0435L6.21111 25.5797C2.52778 26.9565 0 30.5072 0 34.4203V45H39V34.4203C39 30.5072 36.4722 26.9565 32.7889 25.5797ZM19.5 1.52174C22.8222 1.52174 25.6389 3.55072 26.8667 6.52174L23.9056 8.4058L15.8889 4.34783L12.2056 6.44928C13.3611 3.55072 16.1778 1.52174 19.5 1.52174ZM11.5556 9.49275C11.5556 9.13043 11.5556 8.76812 11.6278 8.4058L15.8889 5.94203L23.9056 10L27.2278 7.89855C27.3 8.4058 27.3722 8.91304 27.3722 9.49275C27.3722 14.1304 23.6889 21.8116 19.4278 21.8116C15.2389 21.8116 11.5556 14.1304 11.5556 9.49275ZM16.3222 22.2464C17.3333 22.8986 18.3444 23.2609 19.5 23.2609C20.6556 23.2609 21.7389 22.8986 22.6778 22.2464C23.1833 23.1884 24.1944 23.9855 25.2056 24.4203L22.3167 31.3043L20.5833 26.2319H21.6667V24.7826H17.3333V26.2319H18.4167L16.6833 31.3043L13.7944 24.4203C14.8056 23.9855 15.8167 23.1884 16.3222 22.2464ZM21.5222 33.2609L19.5 38.0435L17.4778 33.2609L19.5 27.3913L21.5222 33.2609ZM37.5556 43.5507H31.7778V37.7536H30.3333V43.5507H8.66667V37.7536H7.22222V43.5507H1.44444V34.4203C1.44444 31.087 3.53889 28.0435 6.71667 26.8841L12.4222 24.8551L19.5 41.7391L26.5778 24.8551L32.2833 26.8841C35.4611 28.0435 37.5556 31.0145 37.5556 34.4203V43.5507Z" fill="#416394"/>
</svg>
