<svg width="53" height="67" viewBox="0 0 53 67" fill="none" xmlns="http://www.w3.org/2000/svg">
<path d="M48.7249 20.0958C48.7249 10.4772 41.015 2.68005 31.5041 2.68005C21.9933 2.68005 14.2834 10.4772 14.2834 20.0958L14.2876 20.1001H14.2749C14.2887 25.8026 17.0765 31.2113 21.758 34.4632C22.88 35.2426 23.5499 36.4979 23.5499 37.8207V42.6581C23.5499 47.1337 27.05 50.8391 31.3515 50.919C31.4013 50.9195 31.4511 50.92 31.5015 50.92C33.5982 50.92 35.5708 50.1053 37.0697 48.6169C38.6046 47.0925 39.4499 45.0557 39.4499 42.8801V37.8186C39.4499 36.492 40.105 35.2479 41.2021 34.4906C45.9127 31.2381 48.7249 25.8583 48.7249 20.1001H48.7207L48.7249 20.0958ZM31.4003 48.239C30.1341 48.2154 28.9729 47.7132 28.0697 46.9001H34.9963C34.0004 47.7893 32.7269 48.2808 31.4003 48.239ZM36.0865 45.5601H26.987C26.7442 45.1446 26.5497 44.696 26.4167 44.2201H36.6277C36.5079 44.6907 36.3277 45.1404 36.0865 45.5601ZM36.7999 42.8801H26.2105C26.2079 42.8061 26.1999 42.7332 26.1999 42.6581V41.5401H36.7999V42.8801ZM36.7999 37.8186V40.2001H26.1999V37.8207C26.1999 37.2628 26.1284 36.7134 25.9937 36.1822L37.0029 36.18C36.8704 36.7102 36.7999 37.2596 36.7999 37.8186ZM46.0749 20.1001C46.0749 24.9723 43.6947 29.5245 39.708 32.2774C38.7508 32.9383 38.0035 33.8275 37.5032 34.84L25.4886 34.8422C24.9825 33.8249 24.2262 32.9271 23.2579 32.2544C19.2336 29.4586 16.9217 24.9793 16.9249 20.1001H16.9207L16.9249 20.0958C16.927 11.9571 23.4519 5.36005 31.4999 5.36005C39.548 5.36005 46.0728 11.9571 46.0749 20.0958L46.0791 20.1001H46.0749Z" fill="#38D4B8"/>
<g clip-path="url(#clip0)">
<path d="M36.3162 25.6589C36.1713 25.3057 36.0237 24.9526 35.8626 24.6047C35.7203 24.2944 35.5378 24.2034 35.1969 24.281C34.7647 24.38 34.3406 24.5111 33.9084 24.5994C33.0736 24.7733 32.2361 24.7893 31.412 24.5298C30.3785 24.2061 29.8283 23.4596 29.49 22.4964H32.2925C32.5126 22.4964 32.6897 22.3198 32.6897 22.1004V21.2202C32.6897 21.0008 32.5126 20.8242 32.2925 20.8242H29.2216C29.2216 20.578 29.2189 20.3426 29.2216 20.1071H32.2925C32.5126 20.1071 32.6897 19.9305 32.6897 19.7112V18.8309C32.6897 18.6115 32.5126 18.4349 32.2925 18.4349H29.6081C29.6081 18.4242 29.6081 18.4135 29.6135 18.4082C29.9356 17.6777 30.4054 17.0918 31.1758 16.7868C32.0723 16.4336 32.9877 16.4416 33.9111 16.6316C34.3486 16.7199 34.7781 16.8537 35.2157 16.9527C35.5351 17.0249 35.7203 16.9313 35.8572 16.6343C36.0156 16.2918 36.1606 15.944 36.3055 15.5935C36.4424 15.2644 36.3619 15.0316 36.0505 14.8497C35.9727 14.8042 35.8921 14.7667 35.8089 14.7346C34.5151 14.2316 33.181 14.0443 31.8039 14.2637C30.8349 14.4189 29.9303 14.7507 29.1491 15.3554C28.164 16.1152 27.5251 17.1185 27.1547 18.2985L27.109 18.4349H25.7293C25.5092 18.4349 25.332 18.6115 25.332 18.8309V19.7112C25.332 19.9305 25.5092 20.1071 25.7293 20.1071H26.8165C26.8165 20.3479 26.8165 20.5807 26.8165 20.8242H25.7293C25.5092 20.8242 25.332 21.0008 25.332 21.2202V22.1004C25.332 22.3198 25.5092 22.4964 25.7293 22.4964H27.0393C27.1386 22.8175 27.2218 23.1439 27.348 23.4516C28.011 25.0462 29.1223 26.1806 30.7946 26.7211C32.177 27.1679 33.5702 27.1545 34.9634 26.7719C35.3257 26.6729 35.6854 26.5445 36.029 26.3866C36.3619 26.2341 36.4478 25.9773 36.3162 25.6589Z" fill="#38D4B8"/>
</g>
<defs>
<clipPath id="clip0">
<rect width="12.9268" height="12.8846" fill="white" transform="translate(24.3901 14.1731)"/>
</clipPath>
</defs>
</svg>
