<svg width="59" height="74" viewBox="0 0 59 74" fill="none" xmlns="http://www.w3.org/2000/svg">
<path d="M24.3375 31.3575L22.0328 26.3625C21.8484 25.9 21.2953 25.715 20.8344 25.9L18.2531 27.1025C17.2391 27.565 16.5016 28.49 16.225 29.6L15.8562 31.265C15.4875 32.93 15.4875 34.595 16.0406 36.1675C17.5156 41.07 19.6359 45.6025 22.4016 49.8575C23.3234 51.245 24.6141 52.355 26.0891 53.095L27.5641 53.835C28.5781 54.2975 29.7766 54.39 30.7906 53.835L33.3719 52.6325C33.8328 52.4475 34.0172 51.8925 33.8328 51.43L31.3437 46.435C31.1594 45.9725 30.6062 45.7875 30.1453 45.9725L26.6422 47.6375C26.2734 47.8225 25.8125 47.73 25.5359 47.36C22.7703 43.7525 20.8344 39.6825 19.9125 35.2425C19.8203 34.78 20.0047 34.41 20.4656 34.225L23.9687 32.56C24.3375 32.375 24.6141 31.82 24.3375 31.3575Z" fill="#38D4B8"/>
<path d="M29.4999 38.11C30.0531 39.3125 30.0531 40.515 29.6843 41.625L31.4359 42.2725C31.989 40.7 31.989 38.9425 31.2515 37.2775C30.514 35.6125 29.1312 34.5025 27.564 33.9475L26.9187 35.705C28.0249 36.1675 29.039 37 29.4999 38.11Z" fill="#38D4B8"/>
<path d="M28.8547 30.525L28.2094 32.2825C30.2375 33.0225 31.8969 34.5025 32.9109 36.63C33.925 38.7575 33.925 40.9775 33.1875 43.0125L34.939 43.66C35.8609 41.255 35.7687 38.3875 34.5703 35.89C33.3719 33.2075 31.2515 31.45 28.8547 30.525Z" fill="#38D4B8"/>
<path d="M36.2297 34.965C37.6125 38.0175 37.7047 41.255 36.5984 44.1225L38.35 44.77C39.5484 41.44 39.4562 37.6475 37.8891 34.1325C36.2297 30.6175 33.3719 28.2125 30.0531 26.9175L29.5 28.7675C32.3578 29.785 34.8469 32.005 36.2297 34.965Z" fill="#38D4B8"/>
<path d="M39.5485 33.3925C41.3922 37.37 41.4844 41.625 40.1016 45.4175L41.8532 46.065C43.3282 41.9025 43.3282 37 41.2079 32.6525C39.1797 28.2125 35.4922 25.0675 31.3438 23.5875L30.6985 25.345C34.4782 26.64 37.7047 29.5075 39.5485 33.3925Z" fill="#38D4B8"/>
<path d="M47.9375 19.425C46.7391 17.1125 44.4344 15.725 41.9453 15.725C41.4844 15.725 41.0234 15.8175 40.5625 15.91C40.1016 10.0825 35.3078 5.54999 29.5 5.54999C24.0609 5.54999 19.4516 9.52749 18.6219 14.8C17.6078 14.1525 16.4094 13.875 15.2109 13.875C11.8922 13.875 9.12656 16.3725 8.48125 19.795C4.60938 20.905 1.84375 24.3275 1.84375 28.2125C1.84375 33.0225 5.99219 37 11.0625 37H13.8281V35.15H11.0625C7.00625 35.15 3.6875 32.005 3.6875 28.2125C3.6875 24.975 6.08437 22.1075 9.40312 21.46L10.1406 21.275L10.2328 20.6275C10.5094 17.8525 12.7219 15.725 15.3031 15.725C16.5938 15.725 17.8844 16.28 18.8062 17.2975L20.3734 18.9625V16.65C20.3734 11.5625 24.5219 7.39999 29.5922 7.39999C34.6625 7.39999 38.8109 11.5625 38.8109 16.65C38.8109 16.7425 38.8109 16.835 38.8109 16.9275L38.7188 18.5925L40.1016 17.945C40.7469 17.6675 41.3922 17.4825 42.0375 17.4825C43.9734 17.4825 45.8172 18.685 46.6469 20.6275L46.9234 21.1825L47.6609 21.09C47.7531 21.09 47.9375 21.09 48.0297 21.09C52.0859 21.09 55.4047 24.235 55.4047 28.0275C55.4047 31.82 51.9938 35.15 47.9375 35.15H44.25V37H47.9375C53.0078 37 57.1562 33.0225 57.1562 28.2125C57.1562 23.4025 53.0078 19.425 47.9375 19.425Z" fill="#38D4B8"/>
</svg>
