<svg width="48" height="61" viewBox="0 0 48 61" fill="none" xmlns="http://www.w3.org/2000/svg">
<path d="M15.7087 46.7494C15.7383 46.7612 15.7646 46.7772 15.7957 46.7864C15.7989 46.7874 15.8021 46.7874 15.8052 46.7885C18.4431 47.8889 21.3274 48.4997 24.3503 48.4997C27.4191 48.4997 30.3461 47.8718 33.0167 46.7392C33.0214 46.7381 33.0262 46.7381 33.0304 46.736C33.0599 46.7268 33.0852 46.7118 33.1127 46.7006C33.1269 46.6941 33.1412 46.6882 33.1554 46.6823C33.1855 46.6684 33.2166 46.6571 33.2445 46.641C41.2859 43.1231 46.9319 34.9902 46.9319 25.5396C46.9319 20.4467 45.3258 15.6235 42.2865 11.5908C41.9157 11.0985 41.2226 11.0042 40.7378 11.3822C40.2536 11.7598 40.1618 12.4644 40.5326 12.9567C43.2734 16.5936 44.7223 20.9449 44.7223 25.5396C44.7223 33.6667 40.0927 40.7126 33.3759 44.1029L27.2308 24.1308L28.6692 19.5066L34.3385 22.7033C34.6397 22.8727 34.9994 22.8894 35.3143 22.7516C35.6292 22.6127 35.8624 22.3327 35.9457 21.9943L39.9851 5.60398C40.0447 5.35998 40.0226 5.10257 39.9218 4.87252L38.2946 1.17337C38.1411 0.824797 37.8241 0.579724 37.4527 0.521808C37.4147 0.515909 37.3773 0.520735 37.3398 0.519126C37.3219 0.515909 37.3119 0.51001 37.286 0.51001H11.3824C11.3528 0.51001 11.3418 0.516445 11.3228 0.520199C11.2869 0.521808 11.2516 0.517517 11.2162 0.52288C10.8449 0.58026 10.5279 0.825869 10.3744 1.17444L8.74713 4.87252C8.64639 5.10204 8.6237 5.35998 8.68384 5.60398L12.7232 21.9943C12.8066 22.3327 13.0402 22.6127 13.3546 22.7516C13.4954 22.8132 13.6452 22.8443 13.7945 22.8443C13.9797 22.8443 14.1637 22.7971 14.3304 22.7033L20.0456 19.4809L21.4919 24.1335L15.4344 44.1619C8.65641 40.7931 3.97614 33.7128 3.97614 25.5396C3.97614 20.9433 5.42617 16.5904 8.16955 12.9524C8.54036 12.4601 8.44858 11.7555 7.96436 11.3779C7.48067 10.9999 6.7881 11.0937 6.4157 11.586C3.3743 15.6198 1.76709 20.4451 1.76709 25.5396C1.76762 35.0894 7.53236 43.2926 15.7087 46.7494ZM34.1534 20.0306L26.524 15.7292L34.1323 6.96394C34.1486 6.94678 34.1681 6.93391 34.184 6.91568L36.9812 3.68576L37.7507 5.43506L34.1534 20.0306ZM24.3345 14.8577L17.7722 7.29643H30.8978L24.3345 14.8577ZM34.8391 2.75535L32.8468 5.05109H15.8285L13.833 2.75535H34.8391ZM10.9193 5.43506L11.6899 3.68362L22.1449 15.7286L14.5161 20.03L10.9193 5.43506ZM24.335 17.0623L26.6991 18.3955L25.2792 22.9602H23.4441L22.0168 18.3692L24.335 17.0623ZM23.4504 25.2977H25.2765L31.3388 44.9985C29.1577 45.8114 26.8041 46.2544 24.3503 46.2544C21.9403 46.2544 19.6273 45.8238 17.4794 45.0392L23.4504 25.2977Z" fill="#38D4B8"/>
<path d="M34.4493 31.5962V29.021H38.1833C38.793 29.021 39.2878 28.518 39.2878 27.8981C39.2878 27.2782 38.793 26.7751 38.1833 26.7751H33.3448C32.735 26.7751 32.2402 27.2782 32.2402 27.8981V32.2654C32.2402 32.6778 32.4623 33.0564 32.8194 33.2532L36.7623 35.4213C36.9263 35.5114 37.1067 35.5565 37.2876 35.5565C37.4685 35.5565 37.6495 35.5114 37.813 35.4213L41.7564 33.2532C42.1135 33.0569 42.3355 32.6778 42.3355 32.2654V27.8981C42.3355 27.2782 41.8408 26.7751 41.231 26.7751C40.6212 26.7751 40.1265 27.2782 40.1265 27.8981V31.5962L37.2876 33.1567L34.4493 31.5962Z" fill="#38D4B8"/>
</svg>
