<svg width="54" height="67" viewBox="0 0 54 67" fill="none" xmlns="http://www.w3.org/2000/svg">
<path d="M48.3683 15.5252C47.3164 14.4811 45.6029 14.48 44.5499 15.5252L40.4999 19.5452V12.06C40.4999 11.7121 40.3514 11.3573 40.103 11.1113L32.0057 3.07395C31.7579 2.82739 31.4009 2.67999 31.0499 2.67999H4.04995C3.30421 2.67999 2.69995 3.27978 2.69995 4.01999V49.58C2.69995 50.3202 3.30421 50.92 4.04995 50.92H39.1499C39.8957 50.92 40.4999 50.3202 40.4999 49.58V31.3748L50.5089 21.44C51.5619 20.3953 51.5619 18.6946 50.5089 17.6499L48.3683 15.5252ZM32.3999 7.25475L35.891 10.72H32.3999V7.25475ZM37.7999 48.24H5.39995V5.35999H29.6999V12.06C29.6999 12.8002 30.3042 13.4 31.0499 13.4H37.7999V22.2252L24.6952 35.2323C24.5224 35.4039 24.3993 35.6193 24.3399 35.8546L22.9899 41.2146C22.8749 41.6713 23.0099 42.1542 23.3452 42.4871C23.6017 42.7417 23.9462 42.88 24.2999 42.88C24.409 42.88 24.5186 42.8671 24.6272 42.8403L30.0272 41.5003C30.2642 41.4414 30.4813 41.3192 30.6541 41.1476L37.7999 34.0548V48.24ZM29.0098 38.9897L26.1554 39.6983L26.8693 36.865L43.1999 20.6553L45.3405 22.78L29.0098 38.9897ZM47.2499 20.8852L45.1094 18.76L46.4594 17.42L48.5999 19.5452L47.2499 20.8852Z" fill="#38D4B8"/>
</svg>
